<svg width="19" height="19" viewBox="0 0 19 19" fill="none" xmlns="http://www.w3.org/2000/svg">
<g filter="url(#filter0_d_212_54)">
<path d="M12.4531 9.5L16.3594 5.59375C16.8672 5.125 16.8672 4.34375 16.3594 3.875L15.5 3.01562C15.0312 2.50781 14.25 2.50781 13.7812 3.01562L9.875 6.92188L5.92969 3.01562C5.46094 2.50781 4.67969 2.50781 4.21094 3.01562L3.35156 3.875C2.84375 4.34375 2.84375 5.125 3.35156 5.59375L7.25781 9.5L3.35156 13.4453C2.84375 13.9141 2.84375 14.6953 3.35156 15.1641L4.21094 16.0234C4.67969 16.5312 5.46094 16.5312 5.92969 16.0234L9.875 12.1172L13.7812 16.0234C14.25 16.5312 15.0312 16.5312 15.5 16.0234L16.3594 15.1641C16.8672 14.6953 16.8672 13.9141 16.3594 13.4453L12.4531 9.5Z" fill="white" shape-rendering="crispEdges"/>
<path d="M12.4531 9.5L12.0996 9.14645L11.7478 9.49825L12.0978 9.85179L12.4531 9.5ZM16.3594 5.59375L16.0202 5.22635L16.0129 5.23313L16.0058 5.2402L16.3594 5.59375ZM16.3594 3.875L16.0058 4.22855L16.0129 4.23562L16.0202 4.2424L16.3594 3.875ZM15.5 3.01562L15.1326 3.35477L15.1394 3.36211L15.1464 3.36918L15.5 3.01562ZM13.7812 3.01562L14.1348 3.36918L14.1419 3.36211L14.1487 3.35477L13.7812 3.01562ZM9.875 6.92188L9.52321 7.27718L9.87675 7.62723L10.2286 7.27543L9.875 6.92188ZM5.92969 3.01562L5.56229 3.35477L5.56991 3.36302L5.5779 3.37093L5.92969 3.01562ZM4.21094 3.01562L4.56449 3.36918L4.57156 3.36211L4.57834 3.35477L4.21094 3.01562ZM3.35156 3.875L3.6907 4.2424L3.69805 4.23562L3.70512 4.22855L3.35156 3.875ZM3.35156 5.59375L3.70512 5.2402L3.69805 5.23313L3.6907 5.22635L3.35156 5.59375ZM7.25781 9.5L7.61312 9.85179L7.96316 9.49825L7.61137 9.14645L7.25781 9.5ZM3.35156 13.4453L3.6907 13.8127L3.69896 13.8051L3.70687 13.7971L3.35156 13.4453ZM3.35156 15.1641L3.70512 14.8105L3.69805 14.8034L3.6907 14.7967L3.35156 15.1641ZM4.21094 16.0234L4.57834 15.6843L4.57156 15.677L4.56449 15.6699L4.21094 16.0234ZM5.92969 16.0234L5.5779 15.6681L5.56991 15.676L5.56229 15.6843L5.92969 16.0234ZM9.875 12.1172L10.2286 11.7636L9.87675 11.4118L9.52321 11.7619L9.875 12.1172ZM13.7812 16.0234L14.1487 15.6843L14.1419 15.677L14.1348 15.6699L13.7812 16.0234ZM15.5 16.0234L15.1464 15.6699L15.1394 15.677L15.1326 15.6843L15.5 16.0234ZM16.3594 15.1641L16.0202 14.7967L16.0129 14.8034L16.0058 14.8105L16.3594 15.1641ZM16.3594 13.4453L16.0041 13.7971L16.012 13.8051L16.0202 13.8127L16.3594 13.4453ZM12.8067 9.85355L16.7129 5.9473L16.0058 5.2402L12.0996 9.14645L12.8067 9.85355ZM16.6985 5.96115C17.4208 5.29442 17.4208 4.17433 16.6985 3.5076L16.0202 4.2424C16.3136 4.51317 16.3136 4.95558 16.0202 5.22635L16.6985 5.96115ZM16.7129 3.52145L15.8536 2.66207L15.1464 3.36918L16.0058 4.22855L16.7129 3.52145ZM15.8674 2.67648C15.2007 1.95419 14.0806 1.95419 13.4138 2.67648L14.1487 3.35477C14.4194 3.06143 14.8618 3.06143 15.1326 3.35477L15.8674 2.67648ZM13.4277 2.66207L9.52145 6.56832L10.2286 7.27543L14.1348 3.36918L13.4277 2.66207ZM10.2268 6.56657L6.28148 2.66032L5.5779 3.37093L9.52321 7.27718L10.2268 6.56657ZM6.29709 2.67648C5.63036 1.95419 4.51027 1.95419 3.84354 2.67648L4.57834 3.35477C4.84911 3.06143 5.29152 3.06143 5.56229 3.35477L6.29709 2.67648ZM3.85738 2.66207L2.99801 3.52145L3.70512 4.22855L4.56449 3.36918L3.85738 2.66207ZM3.01242 3.5076C2.29013 4.17433 2.29013 5.29442 3.01242 5.96115L3.6907 5.22635C3.39737 4.95558 3.39737 4.51317 3.6907 4.2424L3.01242 3.5076ZM2.99801 5.9473L6.90426 9.85355L7.61137 9.14645L3.70512 5.2402L2.99801 5.9473ZM6.9025 9.14821L2.99625 13.0935L3.70687 13.7971L7.61312 9.85179L6.9025 9.14821ZM3.01242 13.0779C2.29013 13.7446 2.29013 14.8647 3.01242 15.5315L3.6907 14.7967C3.39737 14.5259 3.39737 14.0835 3.6907 13.8127L3.01242 13.0779ZM2.99801 15.5176L3.85738 16.377L4.56449 15.6699L3.70512 14.8105L2.99801 15.5176ZM3.84354 16.3626C4.51027 17.0849 5.63036 17.0849 6.29709 16.3626L5.56229 15.6843C5.29152 15.9776 4.84911 15.9776 4.57834 15.6843L3.84354 16.3626ZM6.28148 16.3787L10.2268 12.4725L9.52321 11.7619L5.5779 15.6681L6.28148 16.3787ZM9.52145 12.4707L13.4277 16.377L14.1348 15.6699L10.2286 11.7636L9.52145 12.4707ZM13.4138 16.3626C14.0806 17.0849 15.2007 17.0849 15.8674 16.3626L15.1326 15.6843C14.8618 15.9776 14.4194 15.9776 14.1487 15.6843L13.4138 16.3626ZM15.8536 16.377L16.7129 15.5176L16.0058 14.8105L15.1464 15.6699L15.8536 16.377ZM16.6985 15.5315C17.4208 14.8647 17.4208 13.7446 16.6985 13.0779L16.0202 13.8127C16.3136 14.0835 16.3136 14.5259 16.0202 14.7967L16.6985 15.5315ZM16.7147 13.0935L12.8084 9.14821L12.0978 9.85179L16.0041 13.7971L16.7147 13.0935Z" fill="#222222" fill-opacity="0.5"/>
</g>
<defs>
<filter id="filter0_d_212_54" x="0.84375" y="0.507812" width="18.0234" height="18.0234" filterUnits="userSpaceOnUse" color-interpolation-filters="sRGB">
<feFlood flood-opacity="0" result="BackgroundImageFix"/>
<feColorMatrix in="SourceAlpha" type="matrix" values="0 0 0 0 0 0 0 0 0 0 0 0 0 0 0 0 0 0 127 0" result="hardAlpha"/>
<feOffset/>
<feGaussianBlur stdDeviation="1"/>
<feComposite in2="hardAlpha" operator="out"/>
<feColorMatrix type="matrix" values="0 0 0 0 0 0 0 0 0 0 0 0 0 0 0 0 0 0 0.5 0"/>
<feBlend mode="normal" in2="BackgroundImageFix" result="effect1_dropShadow_212_54"/>
<feBlend mode="normal" in="SourceGraphic" in2="effect1_dropShadow_212_54" result="shape"/>
</filter>
</defs>
</svg>
